<svg color-interpolation-filters="sRGB" fill="none" fill-rule="evenodd" height=".305771in" stroke-linecap="square" stroke-miterlimit="3" viewBox="0 0 123.39 22.0155" width="1.71375in" xmlns="http://www.w3.org/2000/svg"><g fill="#000"><path d="m1.95 21.04c0 .54-.43.98-.97.98s-.98-.44-.98-.98v-9.52c0-.54.44-.98.98-.98h5.26c.48 0 .87.39.87.88 0 .48-.39.87-.87.87h-4.29v3.12h3.19c.47 0 .86.39.86.86s-.39.86-.86.86h-3.19z" transform="translate(41.821 -.85115)"/><path d="m1.95 15.44h3.19c.47 0 .86.39.86.86s-.39.86-.86.86h-3.19v3.1h4.47c.49 0 .88.39.88.88s-.39.88-.88.88h-5.44c-.54 0-.98-.44-.98-.98v-9.39c0-.54.44-.98.98-.98h5.26c.48 0 .87.39.87.88s-.39.88-.87.88h-4.29z" transform="translate(51.3081 -.985877)"/><path d="m1.95 12.29v3.52h2.28c1.04 0 1.5-.86 1.5-1.75 0-.91-.46-1.77-1.55-1.77zm0 5.24v3.51c0 .54-.43.98-.97.98s-.98-.44-.98-.98v-9.52c0-.54.44-.98.98-.98h3.22c2.27 0 3.55 1.62 3.55 3.52 0 1.6-.98 3.15-2.59 3.35l2.49 3.04c.15.2.2.4.2.59 0 .54-.44.98-.97.98-.29 0-.59-.14-.76-.36l-3.07-4.13z" transform="translate(60.7955 -.85115)"/><path d="m8.64 11.37v9.68c0 .53-.43.97-.96.97-.32 0-.62-.17-.79-.43l-4.97-7.17v6.63c0 .53-.44.97-.96.97s-.96-.44-.96-.97v-9.68c0-.53.44-.97.96-.97.34 0 .61.16.78.41l4.98 7.23v-6.67c0-.53.44-.97.96-.97.53 0 .96.44.96.97z" transform="translate(70.8219 -.851129)"/><path d="m0 16.12c0-4 1.92-5.92 5.27-5.92 2.04 0 3.37.81 4.07 1.82.13.2.18.37.18.56 0 .49-.4.89-.91.89-.23 0-.47-.1-.69-.34-.69-.75-1.42-1.17-2.65-1.17-2.24 0-3.25 1.38-3.25 4.16 0 2.95 1.01 4.14 3.25 4.14 1.25 0 1.93-.28 2.73-1.11.27-.27.49-.37.73-.37.5 0 .91.4.91.91 0 .2-.07.37-.17.51-.81 1.07-2.39 1.82-4.2 1.82-3.35 0-5.27-1.77-5.27-5.9z" transform="translate(81.6402 -.75)"/><path d="m4.94 13.61-1.38 3.54h2.76zm-2.04 5.32-1.03 2.45c-.15.35-.47.64-.91.64-.52 0-.96-.44-.96-.97 0-.1.02-.23.07-.35l3.97-9.69c.11-.23.38-.61.9-.61s.79.38.89.61l3.98 9.69c.05.12.06.25.06.35 0 .53-.43.97-.96.97-.43 0-.75-.29-.91-.64l-1.02-2.45z" transform="translate(92.7624 -.851087)"/><path d="m4.4 11.96c-1.4 0-1.92.65-1.92 1.33 0 2.2 6.15 1.18 6.15 5.39 0 2.05-1.45 3.34-4.23 3.34-2.01 0-3.61-1-4.27-2.06-.08-.14-.13-.3-.13-.47 0-.51.4-.91.89-.91.37 0 .58.2.74.37.71.71 1.61 1.28 2.77 1.28 1.53 0 2.27-.51 2.27-1.55 0-2.46-6.15-1.33-6.15-5.39 0-1.67 1.2-3.09 3.88-3.09 1.68 0 3.15.63 3.82 1.59.1.15.17.33.17.54 0 .48-.4.89-.91.89-.23 0-.47-.14-.72-.37-.52-.51-1.4-.89-2.36-.89z" transform="translate(104.12 -.750063)"/><path d="m5.39 12.26v8.78c0 .54-.44.98-.97.98-.54 0-.98-.44-.98-.98v-8.78h-2.58c-.47 0-.86-.39-.86-.86s.39-.86.86-.86h7.11c.47 0 .86.39.86.86s-.39.86-.86.86z" transform="translate(113.809 -.851171)"/><path d="m27.05 22.02h-5.94l-8.62-4.66c-.31-.17-.42-.55-.25-.86.16-.31.55-.43.86-.26l8.34 4.5h5.61c2.49 0 4.52-2.01 4.52-4.48v-.85c0-2.13-1.53-3.97-3.62-4.4l-.48-.1-.03-.48c-.08-1.08-.63-2.06-1.52-2.68-.07-.04-.14-.09-.21-.13l-.12-.07c-.54-.3-1.15-.46-1.77-.46-1.01 0-1.98.43-2.66 1.17l-.7.77-.37-.97c-1.13-3.04-4.08-5.07-7.33-5.07-4.26 0-7.69 3.31-7.82 7.53l-.01.46-.44.13c-1.89.57-3.22 2.34-3.22 4.3v.85c0 2.47 2.03 4.48 4.52 4.48h6.84c.35 0 .64.29.64.64s-.29.64-.64.64h-6.84c-3.19 0-5.79-2.59-5.79-5.76v-.85c0-2.37 1.5-4.51 3.69-5.37.36-4.7 4.26-8.33 9.07-8.33 3.47 0 6.65 2 8.16 5.06.83-.61 1.85-.95 2.9-.95.84 0 1.67.21 2.39.62l.16.09c.09.05.18.11.28.18 1.08.75 1.79 1.89 2 3.16 2.46.71 4.19 2.97 4.19 5.54v.85c0 3.17-2.6 5.76-5.79 5.76z" transform="translate(.75 -.964244)"/></g></svg>