<?xml version="1.0" encoding="utf-8"?>
<!-- Generator: Adobe Illustrator 15.1.0, SVG Export Plug-In . SVG Version: 6.00 Build 0)  -->
<!DOCTYPE svg PUBLIC "-//W3C//DTD SVG 1.1//EN" "http://www.w3.org/Graphics/SVG/1.1/DTD/svg11.dtd">
<svg version="1.1" xmlns="http://www.w3.org/2000/svg" xmlns:xlink="http://www.w3.org/1999/xlink" x="0px" y="0px"
	 width="396.85px" height="90.708px" viewBox="0 0 396.85 90.708" enable-background="new 0 0 396.85 90.708" xml:space="preserve">
<g id="Schutzraum">
	<rect y="0" fill="none" width="396.85" height="90.709"/>
	<rect y="0" fill="none" width="396.85" height="90.709"/>
	<rect y="0" fill="none" width="396.85" height="90.709"/>
	<rect y="0" fill="none" width="396.85" height="90.709"/>
	<rect y="0" fill="none" width="396.85" height="90.709"/>
	<rect y="0" fill="none" width="396.85" height="90.709"/>
</g>
<g id="Logo">
	<g>
		<path fill="#8EBAE5" d="M322.033,67.852h4.345v-9.113h2.323c1.75,0,2.505,1.026,2.566,2.716l0.12,4.135
			c0.029,0.844,0.12,1.658,0.543,2.263h4.707v-0.181c-0.814-0.424-0.936-1.6-0.966-3.862c-0.06-4.557-0.513-6.188-3.47-6.579v-0.06
			c2.444-0.514,3.591-2.444,3.591-5.312c0-3.682-2.173-5.553-5.733-5.553h-8.026V67.852z M326.378,49.505h2.053
			c1.961,0,3.018,0.996,3.018,2.987c0,2.323-1.178,3.229-3.26,3.229h-1.811V49.505z"/>
		<path fill="#8EBAE5" d="M257.97,46.307v15.027c0,5.764,3.35,6.941,6.88,6.941s6.881-1.448,6.881-6.941V46.307h-4.346v15.027
			c0,2.143-0.513,3.742-2.535,3.742c-2.021,0-2.534-1.6-2.534-3.742V46.307H257.97z"/>
	</g>
	<polygon fill="#8EBAE5" points="272.794,46.307 272.794,67.851 276.776,67.851 276.776,52.764 276.837,52.764 282.147,67.851 
		287.097,67.851 287.097,46.307 283.114,46.307 283.114,61.062 283.054,61.062 277.803,46.307 	"/>
	<rect x="288.214" y="46.307" fill="#8EBAE5" width="4.345" height="21.544"/>
	<polygon fill="#8EBAE5" points="292.857,46.307 297.806,67.851 303.389,67.851 308.336,46.307 303.841,46.307 300.643,62.24 
		300.553,62.24 297.504,46.307 	"/>
	<polygon fill="#8EBAE5" points="308.724,46.307 308.724,67.851 321.065,67.851 321.065,64.292 313.069,64.292 313.069,58.498 
		320.312,58.498 320.312,54.936 313.069,54.936 313.069,49.868 320.764,49.868 320.764,46.307 	"/>
	<g>
		<path fill="#8EBAE5" d="M336.153,61.123v0.875c0,3.984,1.932,6.277,6.851,6.277c4.707,0,7.482-2.052,7.482-6.609
			c0-2.625-0.845-4.284-4.104-5.703l-3.35-1.447c-1.841-0.785-2.232-1.6-2.232-2.928c0-1.267,0.513-2.505,2.474-2.505
			c1.659,0,2.354,1.177,2.354,3.199h4.164v-0.604c0-4.134-2.808-5.792-6.669-5.792c-4.104,0-6.668,2.142-6.668,6.335
			c0,3.592,1.779,5.191,5.642,6.519c2.867,0.996,3.863,1.72,3.863,3.682c0,1.811-1.269,2.655-2.596,2.655
			c-2.294,0-2.866-1.297-2.866-3.319v-0.634H336.153z"/>
	</g>
	<rect x="351.055" y="46.307" fill="#8EBAE5" width="4.346" height="21.544"/>
	<polygon fill="#8EBAE5" points="377.97,46.307 374.951,54.634 374.892,54.634 372.056,46.307 355.97,46.307 355.97,49.868 
		360.677,49.868 360.677,67.851 365.022,67.851 365.022,49.868 368.688,49.868 372.748,59.373 372.748,67.851 377.095,67.851 
		377.095,59.373 382.678,46.307 	"/>
	<g>
		<path fill="#00549F" d="M219.799,44.347h-0.276h-6.924v-2.439V22.865v-0.159h6.91h0.014h4.883c3.202-0.001,5.964,2.072,6.864,4.82
			c0.834,2.546,0.121,5.312-1.761,7.281c0.25,0.678,0.494,1.209,0.726,1.818c0.523,1.205,1.001,2.41,1.524,3.6l1.713,4.122h-0.044
			h-7.257c0,0.004-0.059-0.174-0.116-0.247c-0.29-0.638-0.552-1.321-0.842-1.959l-1.756-4.166c-0.697-1.684-1.395-3.275-2.09-4.958
			c0.868-0.024,1.519,0.139,2.357-0.247c0.59-0.29,1.484-1.011,1.507-2.394c-0.022-0.685-0.213-1.204-0.666-1.744
			c-0.455-0.502-1.112-0.874-1.97-0.886c0,0-2.798-0.001-2.797,0V44.347z"/>
		<path fill="#00549F" d="M295.004,22.706v21.641h-5.622h-1.577v-8.824h-0.673h-4.31h-0.059v8.824c-1.307,0-2.715-0.014-4.021,0
			h-3.18V27.713h-5.036v0.522v1.567v7.127v7.417h-0.058h-7.143v-8.97v-0.348v-7.315h-5.079v7.852v8.781h-7.417
			c-1.292-3.12-2.655-6.27-3.919-9.376c-0.145-0.653-0.29-1.307-0.479-1.945v11.321h-7.433c-1.473-3.425-2.888-6.782-4.356-10.258
			c-0.509-1.204-0.926-2.184-1.452-3.436l-0.072-0.164l-1.144-2.685l-1.639-3.835c-0.144-0.435-0.376-0.828-0.521-1.263h7.415
			c1.523,3.701,3.062,7.359,4.659,11.002l0.044,0.087c-0.059-0.421-0.19-0.958-0.263-1.364v-6.459c0.015-1.031,0-2.207,0-3.266
			h7.432c0.094,0.236,0.146,0.363,0.218,0.552c0.871,2.046,1.699,4.078,2.57,6.11l1.944,4.427c-0.044-0.465-0.146-0.914-0.204-1.364
			v-9.725h0.596h5.052h18.288h5.196v1.35v6.459h0.349h4.692v-7.809h3.755H295.004z"/>
	</g>
	<path fill="#8EBAE5" d="M315.889,36.192l2.093-9.73h0.06l2.092,9.73H315.889z M301.462,36.192l2.091-9.73h0.061l2.092,9.73H301.462
		z M320.709,22.704h-5.396l-4.517,17.059l-4.516-17.059h-5.396l-5.729,21.643h4.547l1-4.577h5.761l0.999,4.577h6.668l1-4.577h5.76
		l1,4.577h4.548L320.709,22.704z"/>
	<g>
		<path fill="#8EBAE5" d="M339.438,30.088c0-3.138-0.452-7.695-6.669-7.695c-6.517,0-7.333,4.647-7.333,11.195
			c0,6.548,0.816,11.195,7.333,11.195c5.703,0,6.85-4.013,6.85-8.66h-4.345c0,4.647-1.146,5.462-2.716,5.462
			c-1.871,0-2.776-1.177-2.776-7.695c0-6.095,0.514-8.298,2.716-8.298c1.962,0,2.596,1.358,2.596,4.496H339.438z"/>
	</g>
	<polygon fill="#8EBAE5" points="340.477,44.347 344.841,44.347 344.841,34.739 349.933,34.739 349.933,44.347 354.298,44.347 
		354.298,22.706 349.933,22.706 349.933,30.981 344.841,30.981 344.841,22.706 340.477,22.706 	"/>
	<polygon fill="#8EBAE5" points="355.244,22.702 355.244,44.347 367.644,44.347 367.644,40.77 359.61,40.77 359.61,34.949 
		366.886,34.949 366.886,31.372 359.61,31.372 359.61,26.279 367.34,26.279 367.34,22.702 	"/>
	<polygon fill="#8EBAE5" points="368.292,22.706 368.292,44.347 372.293,44.347 372.293,29.192 372.353,29.192 377.688,44.347 
		382.658,44.347 382.658,22.706 378.657,22.706 378.657,37.527 378.597,37.527 373.322,22.706 	"/>
	<rect x="197.925" y="22.676" fill="#00549F" width="1" height="45.355"/>
	<g>
		<path fill="#00549F" d="M143.285,66.004c0,0.16,0.012,0.315,0.035,0.465c0.024,0.15,0.062,0.283,0.115,0.4
			c0.054,0.117,0.124,0.21,0.21,0.28c0.087,0.069,0.194,0.104,0.32,0.104c0.234,0,0.404-0.083,0.51-0.25
			c0.107-0.167,0.18-0.42,0.22-0.76h1.24c-0.026,0.627-0.193,1.104-0.5,1.43c-0.306,0.327-0.79,0.49-1.45,0.49
			c-0.5,0-0.89-0.083-1.17-0.25c-0.28-0.167-0.486-0.387-0.62-0.66c-0.133-0.272-0.215-0.58-0.245-0.92
			c-0.03-0.34-0.045-0.68-0.045-1.02c0-0.36,0.025-0.707,0.075-1.04c0.05-0.333,0.15-0.63,0.3-0.891
			c0.15-0.26,0.365-0.467,0.645-0.619c0.28-0.153,0.654-0.23,1.12-0.23c0.4,0,0.729,0.065,0.985,0.195
			c0.257,0.13,0.459,0.312,0.605,0.55c0.147,0.237,0.247,0.522,0.3,0.86c0.054,0.337,0.08,0.712,0.08,1.125v0.31h-2.73V66.004z
			 M144.655,64.209c-0.02-0.157-0.055-0.29-0.105-0.399c-0.05-0.11-0.12-0.193-0.21-0.25c-0.09-0.058-0.205-0.085-0.345-0.085
			c-0.14,0-0.255,0.031-0.345,0.095c-0.09,0.062-0.161,0.146-0.215,0.25c-0.053,0.103-0.091,0.218-0.115,0.345
			c-0.023,0.127-0.035,0.253-0.035,0.38v0.21h1.41C144.689,64.547,144.675,64.367,144.655,64.209 M135.745,62.674v0.551h0.02
			c0.174-0.247,0.369-0.424,0.585-0.53c0.217-0.107,0.475-0.16,0.775-0.16c0.32,0,0.589,0.073,0.805,0.22
			c0.217,0.147,0.362,0.36,0.435,0.641h0.02c0.107-0.287,0.279-0.502,0.515-0.646c0.237-0.143,0.519-0.215,0.845-0.215
			c0.46,0,0.799,0.138,1.015,0.415c0.217,0.277,0.325,0.675,0.325,1.195v3.91h-1.38v-3.761c0-0.227-0.041-0.399-0.125-0.52
			c-0.083-0.12-0.221-0.181-0.415-0.181c-0.22,0-0.395,0.073-0.525,0.221c-0.13,0.146-0.195,0.38-0.195,0.7v3.54h-1.38v-3.761
			c0-0.227-0.041-0.399-0.125-0.52c-0.083-0.12-0.221-0.181-0.415-0.181c-0.22,0-0.395,0.073-0.525,0.221
			c-0.13,0.146-0.195,0.38-0.195,0.7v3.54h-1.38v-5.381H135.745z M130.875,66.004c0,0.16,0.012,0.315,0.035,0.465
			c0.024,0.15,0.062,0.283,0.115,0.4c0.054,0.117,0.124,0.21,0.21,0.28c0.087,0.069,0.194,0.104,0.32,0.104
			c0.234,0,0.404-0.083,0.51-0.25c0.107-0.167,0.18-0.42,0.22-0.76h1.24c-0.026,0.627-0.193,1.104-0.5,1.43
			c-0.306,0.327-0.79,0.49-1.45,0.49c-0.5,0-0.89-0.083-1.17-0.25s-0.486-0.387-0.62-0.66c-0.133-0.272-0.215-0.58-0.245-0.92
			c-0.03-0.34-0.045-0.68-0.045-1.02c0-0.36,0.025-0.707,0.075-1.04s0.15-0.63,0.3-0.891c0.15-0.26,0.365-0.467,0.645-0.619
			c0.28-0.153,0.654-0.23,1.12-0.23c0.4,0,0.729,0.065,0.985,0.195c0.257,0.13,0.459,0.312,0.605,0.55
			c0.147,0.237,0.247,0.522,0.3,0.86c0.054,0.337,0.08,0.712,0.08,1.125v0.31h-2.73V66.004z M132.245,64.209
			c-0.02-0.157-0.055-0.29-0.105-0.399c-0.05-0.11-0.12-0.193-0.21-0.25c-0.09-0.058-0.205-0.085-0.345-0.085
			c-0.14,0-0.255,0.031-0.345,0.095c-0.09,0.062-0.161,0.146-0.215,0.25c-0.053,0.103-0.091,0.218-0.115,0.345
			c-0.023,0.127-0.035,0.253-0.035,0.38v0.21h1.41C132.279,64.547,132.265,64.367,132.245,64.209 M128.316,61.134v1.54h0.8v0.94
			h-0.8v2.91c0,0.213,0.031,0.365,0.095,0.455c0.063,0.09,0.195,0.135,0.395,0.135c0.053,0,0.106-0.002,0.16-0.005
			c0.053-0.003,0.103-0.008,0.15-0.016v0.961c-0.154,0-0.302,0.005-0.445,0.015c-0.144,0.01-0.295,0.015-0.455,0.015
			c-0.267,0-0.485-0.018-0.655-0.055c-0.17-0.037-0.3-0.11-0.39-0.22c-0.09-0.11-0.152-0.255-0.185-0.436
			c-0.034-0.18-0.05-0.407-0.05-0.68v-3.08h-0.7v-0.94h0.7v-1.54H128.316z M123.106,66.475c0,0.232,0.061,0.422,0.185,0.564
			c0.123,0.144,0.301,0.215,0.535,0.215c0.213,0,0.383-0.053,0.51-0.16c0.126-0.106,0.19-0.267,0.19-0.479
			c0-0.173-0.05-0.305-0.15-0.396c-0.1-0.09-0.217-0.161-0.35-0.215l-0.97-0.35c-0.38-0.133-0.667-0.322-0.86-0.565
			c-0.194-0.242-0.29-0.555-0.29-0.935c0-0.22,0.036-0.428,0.11-0.625c0.073-0.197,0.19-0.368,0.35-0.515
			c0.16-0.147,0.365-0.264,0.615-0.351s0.551-0.13,0.905-0.13c0.626,0,1.09,0.133,1.39,0.4c0.3,0.267,0.45,0.643,0.45,1.13v0.22
			h-1.24c0-0.28-0.045-0.485-0.135-0.615c-0.09-0.13-0.249-0.194-0.475-0.194c-0.174,0-0.325,0.048-0.455,0.145
			s-0.195,0.242-0.195,0.436c0,0.133,0.041,0.253,0.125,0.359c0.083,0.107,0.241,0.197,0.475,0.271l0.83,0.279
			c0.433,0.147,0.74,0.338,0.92,0.575c0.18,0.237,0.27,0.559,0.27,0.965c0,0.287-0.05,0.535-0.15,0.745s-0.239,0.385-0.415,0.525
			c-0.177,0.14-0.387,0.24-0.63,0.3c-0.244,0.06-0.512,0.09-0.805,0.09c-0.387,0-0.709-0.037-0.965-0.109
			c-0.257-0.073-0.46-0.184-0.61-0.33c-0.15-0.147-0.255-0.325-0.315-0.535c-0.06-0.21-0.09-0.445-0.09-0.705v-0.19h1.24V66.475z
			 M117.916,68.785c0.253,0,0.435-0.067,0.545-0.2c0.11-0.133,0.175-0.31,0.195-0.529l-1.51-5.381h1.44l0.8,3.721h0.02l0.7-3.721
			h1.38l-1.3,5.021c-0.12,0.447-0.235,0.808-0.345,1.085s-0.24,0.49-0.39,0.64c-0.15,0.15-0.33,0.248-0.54,0.295
			s-0.475,0.07-0.795,0.07h-0.56v-1.03C117.676,68.775,117.796,68.785,117.916,68.785 M114.026,66.475
			c0,0.232,0.062,0.422,0.185,0.564c0.123,0.144,0.302,0.215,0.535,0.215c0.213,0,0.383-0.053,0.51-0.16
			c0.127-0.106,0.19-0.267,0.19-0.479c0-0.173-0.05-0.305-0.15-0.396c-0.1-0.09-0.217-0.161-0.35-0.215l-0.97-0.35
			c-0.38-0.133-0.667-0.322-0.86-0.565c-0.193-0.242-0.29-0.555-0.29-0.935c0-0.22,0.037-0.428,0.11-0.625
			c0.073-0.197,0.19-0.368,0.35-0.515c0.16-0.147,0.365-0.264,0.615-0.351s0.552-0.13,0.905-0.13c0.627,0,1.09,0.133,1.39,0.4
			c0.3,0.267,0.45,0.643,0.45,1.13v0.22h-1.24c0-0.28-0.045-0.485-0.135-0.615c-0.09-0.13-0.248-0.194-0.475-0.194
			c-0.173,0-0.325,0.048-0.455,0.145s-0.195,0.242-0.195,0.436c0,0.133,0.042,0.253,0.125,0.359
			c0.083,0.107,0.242,0.197,0.475,0.271l0.83,0.279c0.433,0.147,0.74,0.338,0.92,0.575c0.18,0.237,0.27,0.559,0.27,0.965
			c0,0.287-0.05,0.535-0.15,0.745s-0.238,0.385-0.415,0.525c-0.177,0.14-0.387,0.24-0.63,0.3s-0.512,0.09-0.805,0.09
			c-0.387,0-0.708-0.037-0.965-0.109c-0.257-0.073-0.46-0.184-0.61-0.33c-0.15-0.147-0.255-0.325-0.315-0.535
			s-0.09-0.445-0.09-0.705v-0.19h1.24V66.475z"/>
		<path fill="#00549F" d="M183.889,54.405h-2.82v-1.18h2.82V54.405z M177.578,55.125c0,0.233,0.062,0.422,0.185,0.565
			c0.124,0.143,0.302,0.215,0.535,0.215c0.214,0,0.384-0.053,0.51-0.16c0.127-0.106,0.19-0.267,0.19-0.479
			c0-0.174-0.05-0.306-0.15-0.396c-0.1-0.09-0.216-0.162-0.35-0.215l-0.97-0.35c-0.38-0.134-0.666-0.322-0.86-0.565
			c-0.193-0.243-0.29-0.555-0.29-0.935c0-0.221,0.037-0.429,0.11-0.625c0.074-0.197,0.19-0.368,0.35-0.516
			c0.16-0.146,0.365-0.263,0.615-0.35s0.552-0.13,0.905-0.13c0.627,0,1.09,0.133,1.39,0.399c0.3,0.268,0.45,0.644,0.45,1.13v0.221
			h-1.24c0-0.28-0.045-0.485-0.135-0.615s-0.248-0.195-0.475-0.195c-0.173,0-0.325,0.048-0.455,0.146
			c-0.13,0.097-0.195,0.241-0.195,0.435c0,0.133,0.042,0.253,0.125,0.36c0.084,0.106,0.242,0.196,0.475,0.27l0.83,0.28
			c0.434,0.146,0.74,0.338,0.92,0.575c0.18,0.236,0.27,0.558,0.27,0.965c0,0.287-0.05,0.535-0.15,0.745
			c-0.1,0.21-0.238,0.385-0.415,0.524c-0.176,0.141-0.386,0.24-0.63,0.301c-0.243,0.06-0.511,0.09-0.805,0.09
			c-0.386,0-0.708-0.037-0.965-0.11c-0.256-0.073-0.46-0.183-0.61-0.33c-0.15-0.146-0.255-0.325-0.315-0.535s-0.09-0.444-0.09-0.705
			v-0.189h1.24V55.125z M172.807,51.325v0.63h0.02c0.147-0.267,0.337-0.462,0.57-0.585c0.234-0.123,0.5-0.185,0.8-0.185
			c0.44,0,0.779,0.12,1.015,0.359c0.237,0.24,0.355,0.63,0.355,1.17v3.99h-1.38v-3.71c0-0.28-0.046-0.475-0.14-0.585
			c-0.093-0.11-0.243-0.165-0.45-0.165c-0.486,0-0.73,0.297-0.73,0.89v3.57h-1.38v-5.38H172.807z M166.536,52.794
			c0.074-0.353,0.194-0.647,0.36-0.885c0.167-0.237,0.385-0.417,0.655-0.54s0.602-0.185,0.995-0.185
			c0.414-0.008,0.757,0.048,1.03,0.165c0.274,0.116,0.49,0.295,0.65,0.534c0.16,0.24,0.274,0.537,0.34,0.891
			c0.067,0.353,0.1,0.767,0.1,1.24c0,0.46-0.036,0.866-0.11,1.22c-0.073,0.353-0.193,0.647-0.36,0.885
			c-0.166,0.237-0.385,0.412-0.655,0.525c-0.27,0.112-0.601,0.17-0.995,0.17c-0.413,0.007-0.756-0.045-1.03-0.155
			c-0.273-0.11-0.49-0.283-0.65-0.52c-0.16-0.237-0.273-0.533-0.34-0.891c-0.066-0.356-0.1-0.768-0.1-1.234
			C166.426,53.555,166.463,53.148,166.536,52.794 M167.826,54.775c0.014,0.232,0.045,0.433,0.095,0.6
			c0.05,0.167,0.125,0.297,0.225,0.391c0.1,0.093,0.234,0.14,0.4,0.14c0.28,0,0.474-0.147,0.58-0.44
			c0.107-0.293,0.16-0.776,0.16-1.449c0-0.674-0.053-1.157-0.16-1.45c-0.106-0.293-0.3-0.44-0.58-0.44c-0.166,0-0.3,0.047-0.4,0.141
			c-0.1,0.093-0.175,0.223-0.225,0.39c-0.05,0.167-0.081,0.367-0.095,0.6c-0.013,0.233-0.02,0.487-0.02,0.761
			C167.806,54.288,167.813,54.542,167.826,54.775 M165.556,56.705h-1.38v-5.38h1.38V56.705z M165.556,50.665h-1.38v-1.18h1.38
			V50.665z M162.765,49.785v1.54h0.8v0.94h-0.8v2.909c0,0.214,0.031,0.365,0.095,0.455c0.063,0.09,0.195,0.136,0.395,0.136
			c0.053,0,0.106-0.002,0.16-0.006c0.053-0.003,0.103-0.008,0.15-0.015v0.96c-0.154,0-0.302,0.005-0.445,0.015
			c-0.144,0.011-0.295,0.016-0.455,0.016c-0.267,0-0.485-0.019-0.655-0.055c-0.17-0.037-0.3-0.11-0.39-0.221
			c-0.09-0.109-0.152-0.255-0.185-0.435c-0.034-0.181-0.05-0.407-0.05-0.681v-3.079h-0.7v-0.94h0.7v-1.54H162.765z M156.184,52.844
			c0-0.312,0.05-0.574,0.15-0.784c0.1-0.21,0.235-0.38,0.405-0.511c0.17-0.13,0.37-0.223,0.6-0.279
			c0.23-0.058,0.475-0.085,0.735-0.085c0.413,0,0.746,0.04,1,0.12c0.253,0.079,0.45,0.192,0.59,0.34
			c0.14,0.146,0.235,0.321,0.285,0.524c0.05,0.203,0.075,0.425,0.075,0.665v2.83c0,0.253,0.011,0.45,0.035,0.59
			c0.023,0.141,0.068,0.29,0.135,0.45h-1.32c-0.047-0.087-0.082-0.178-0.105-0.274c-0.024-0.098-0.045-0.192-0.065-0.285h-0.02
			c-0.16,0.279-0.345,0.462-0.555,0.545s-0.482,0.125-0.815,0.125c-0.24,0-0.444-0.042-0.61-0.125c-0.167-0.083-0.3-0.198-0.4-0.346
			c-0.1-0.146-0.174-0.312-0.22-0.494c-0.047-0.184-0.07-0.365-0.07-0.545c0-0.254,0.026-0.473,0.08-0.655
			c0.053-0.184,0.135-0.34,0.245-0.47c0.11-0.131,0.25-0.238,0.42-0.325s0.375-0.163,0.615-0.23l0.78-0.21
			c0.206-0.053,0.35-0.127,0.43-0.22c0.08-0.093,0.12-0.23,0.12-0.41c0-0.207-0.049-0.368-0.145-0.485
			c-0.097-0.116-0.262-0.175-0.495-0.175c-0.214,0-0.374,0.063-0.48,0.19c-0.107,0.127-0.16,0.297-0.16,0.51v0.15h-1.24V52.844z
			 M158.404,54.19c-0.107,0.043-0.204,0.075-0.29,0.095c-0.28,0.06-0.48,0.16-0.6,0.3c-0.12,0.141-0.18,0.33-0.18,0.57
			c0,0.207,0.04,0.383,0.12,0.53c0.08,0.146,0.213,0.22,0.4,0.22c0.093,0,0.19-0.015,0.29-0.045c0.1-0.03,0.191-0.078,0.275-0.146
			c0.083-0.066,0.151-0.152,0.205-0.26c0.053-0.106,0.08-0.232,0.08-0.38v-1.06C158.61,54.087,158.51,54.147,158.404,54.19
			 M152.543,53.334h0.02l1.39-2.01h1.52l-1.55,2.12l1.78,3.26h-1.52l-1.15-2.21l-0.49,0.64v1.57h-1.38v-7.14h1.38V53.334z
			 M150.062,56.705h-1.38v-5.38h1.38V56.705z M150.062,50.665h-1.38v-1.18h1.38V50.665z M144.871,51.325v0.63h0.02
			c0.146-0.267,0.336-0.462,0.57-0.585c0.233-0.123,0.5-0.185,0.8-0.185c0.44,0,0.778,0.12,1.015,0.359
			c0.236,0.24,0.355,0.63,0.355,1.17v3.99h-1.38v-3.71c0-0.28-0.047-0.475-0.14-0.585c-0.094-0.11-0.244-0.165-0.45-0.165
			c-0.487,0-0.73,0.297-0.73,0.89v3.57h-1.38v-5.38H144.871z M141.21,56.075c-0.147,0.267-0.337,0.457-0.57,0.57
			c-0.234,0.112-0.5,0.17-0.8,0.17c-0.44,0-0.779-0.115-1.015-0.346c-0.237-0.229-0.355-0.614-0.355-1.154v-3.99h1.38v3.71
			c0,0.28,0.046,0.475,0.14,0.585c0.093,0.11,0.243,0.165,0.45,0.165c0.486,0,0.73-0.297,0.73-0.89v-3.57h1.38v5.38h-1.32v-0.63
			H141.21z M132.129,51.325v0.55h0.02c0.173-0.247,0.368-0.423,0.585-0.53c0.216-0.106,0.475-0.159,0.775-0.159
			c0.32,0,0.588,0.072,0.805,0.22c0.216,0.146,0.361,0.36,0.435,0.64h0.02c0.106-0.287,0.278-0.502,0.515-0.645
			c0.236-0.144,0.518-0.215,0.845-0.215c0.46,0,0.798,0.138,1.015,0.415c0.216,0.276,0.325,0.675,0.325,1.194v3.91h-1.38v-3.76
			c0-0.228-0.042-0.4-0.125-0.521c-0.084-0.119-0.222-0.18-0.415-0.18c-0.22,0-0.395,0.073-0.525,0.22
			c-0.13,0.147-0.195,0.38-0.195,0.7v3.54h-1.38v-3.76c0-0.228-0.042-0.4-0.125-0.521c-0.084-0.119-0.222-0.18-0.415-0.18
			c-0.22,0-0.395,0.073-0.525,0.22c-0.13,0.147-0.195,0.38-0.195,0.7v3.54h-1.38v-5.38H132.129z M124.468,51.325v0.55h0.02
			c0.173-0.247,0.368-0.423,0.585-0.53c0.217-0.106,0.475-0.159,0.775-0.159c0.32,0,0.588,0.072,0.805,0.22
			c0.217,0.146,0.361,0.36,0.435,0.64h0.02c0.107-0.287,0.278-0.502,0.515-0.645c0.236-0.144,0.518-0.215,0.845-0.215
			c0.46,0,0.798,0.138,1.015,0.415c0.217,0.276,0.325,0.675,0.325,1.194v3.91h-1.38v-3.76c0-0.228-0.042-0.4-0.125-0.521
			c-0.084-0.119-0.222-0.18-0.415-0.18c-0.22,0-0.395,0.073-0.525,0.22c-0.13,0.147-0.195,0.38-0.195,0.7v3.54h-1.38v-3.76
			c0-0.228-0.042-0.4-0.125-0.521c-0.084-0.119-0.222-0.18-0.415-0.18c-0.22,0-0.395,0.073-0.525,0.22
			c-0.13,0.147-0.195,0.38-0.195,0.7v3.54h-1.38v-5.38H124.468z M118.197,52.794c0.073-0.353,0.193-0.647,0.36-0.885
			s0.385-0.417,0.655-0.54s0.602-0.185,0.995-0.185c0.413-0.008,0.757,0.048,1.03,0.165c0.273,0.116,0.49,0.295,0.65,0.534
			c0.16,0.24,0.273,0.537,0.34,0.891c0.067,0.353,0.1,0.767,0.1,1.24c0,0.46-0.037,0.866-0.11,1.22
			c-0.073,0.353-0.193,0.647-0.36,0.885s-0.385,0.412-0.655,0.525c-0.27,0.112-0.602,0.17-0.995,0.17
			c-0.413,0.007-0.757-0.045-1.03-0.155s-0.49-0.283-0.65-0.52c-0.16-0.237-0.273-0.533-0.34-0.891
			c-0.067-0.356-0.1-0.768-0.1-1.234C118.087,53.555,118.124,53.148,118.197,52.794 M119.487,54.775
			c0.013,0.232,0.045,0.433,0.095,0.6c0.05,0.167,0.125,0.297,0.225,0.391c0.1,0.093,0.233,0.14,0.4,0.14
			c0.28,0,0.473-0.147,0.58-0.44s0.16-0.776,0.16-1.449c0-0.674-0.053-1.157-0.16-1.45s-0.3-0.44-0.58-0.44
			c-0.167,0-0.3,0.047-0.4,0.141c-0.1,0.093-0.175,0.223-0.225,0.39c-0.05,0.167-0.082,0.367-0.095,0.6
			c-0.013,0.233-0.02,0.487-0.02,0.761C119.467,54.288,119.474,54.542,119.487,54.775 M114.496,52.424h0.02l1.82-2.859h1.56
			l-1.94,3.06l2.16,4.08h-1.62l-1.47-2.93l-0.53,0.81v2.12h-1.44v-7.14h1.44V52.424z"/>
		<path fill="#00549F" d="M154.095,39.975v0.72h0.02c0.14-0.26,0.31-0.468,0.51-0.625c0.2-0.156,0.443-0.235,0.73-0.235
			c0.04,0,0.082,0.002,0.125,0.005c0.043,0.004,0.085,0.009,0.125,0.015v1.32c-0.073-0.006-0.145-0.011-0.215-0.015
			c-0.07-0.003-0.142-0.005-0.215-0.005c-0.12,0-0.24,0.017-0.36,0.05c-0.12,0.034-0.23,0.089-0.33,0.165
			c-0.1,0.077-0.18,0.177-0.24,0.3c-0.06,0.124-0.09,0.275-0.09,0.455v3.23h-1.38v-5.38H154.095z M150.415,44.725
			c-0.147,0.267-0.337,0.457-0.57,0.57c-0.233,0.113-0.5,0.17-0.8,0.17c-0.44,0-0.778-0.115-1.015-0.345
			c-0.237-0.23-0.355-0.615-0.355-1.155v-3.99h1.38v3.71c0,0.28,0.047,0.475,0.14,0.585c0.093,0.11,0.243,0.165,0.45,0.165
			c0.487,0,0.73-0.296,0.73-0.89v-3.57h1.38v5.38h-1.32v-0.63H150.415z M149.415,39.254h-1.12v-1.18h1.12V39.254z M151.135,39.254
			h-1.12v-1.18h1.12V39.254z M144.215,40.915v-0.94h0.7v-0.61c0-0.24,0.033-0.443,0.1-0.61c0.067-0.166,0.162-0.3,0.285-0.4
			s0.275-0.171,0.455-0.215c0.18-0.043,0.38-0.065,0.6-0.065c0.247,0,0.493,0.01,0.74,0.03v0.98c-0.033-0.006-0.08-0.01-0.14-0.01
			h-0.13c-0.193,0-0.33,0.034-0.41,0.1c-0.08,0.067-0.12,0.177-0.12,0.33v0.47h0.8v0.94h-0.8v4.44h-1.38v-4.44H144.215z
			 M140.735,38.435v1.54h0.8v0.94h-0.8v2.91c0,0.214,0.032,0.365,0.095,0.455c0.064,0.09,0.195,0.135,0.395,0.135
			c0.054,0,0.107-0.001,0.16-0.005c0.054-0.003,0.104-0.008,0.15-0.015v0.96c-0.153,0-0.301,0.005-0.445,0.015
			c-0.143,0.01-0.295,0.015-0.455,0.015c-0.266,0-0.485-0.018-0.655-0.055c-0.17-0.036-0.3-0.11-0.39-0.22
			c-0.09-0.11-0.151-0.255-0.185-0.435c-0.033-0.18-0.05-0.406-0.05-0.68v-3.08h-0.7v-0.94h0.7v-1.54H140.735z M136.695,44.725
			c-0.146,0.267-0.336,0.457-0.57,0.57c-0.233,0.113-0.5,0.17-0.8,0.17c-0.44,0-0.778-0.115-1.015-0.345
			c-0.236-0.23-0.355-0.615-0.355-1.155v-3.99h1.38v3.71c0,0.28,0.047,0.475,0.14,0.585c0.094,0.11,0.244,0.165,0.45,0.165
			c0.487,0,0.73-0.296,0.73-0.89v-3.57h1.38v5.38h-1.32v-0.63H136.695z M132.575,38.435v1.54h0.8v0.94h-0.8v2.91
			c0,0.214,0.032,0.365,0.095,0.455c0.064,0.09,0.195,0.135,0.395,0.135c0.054,0,0.107-0.001,0.16-0.005
			c0.054-0.003,0.104-0.008,0.15-0.015v0.96c-0.153,0-0.301,0.005-0.445,0.015c-0.143,0.01-0.295,0.015-0.455,0.015
			c-0.266,0-0.485-0.018-0.655-0.055c-0.17-0.036-0.3-0.11-0.39-0.22c-0.09-0.11-0.151-0.255-0.185-0.435
			c-0.033-0.18-0.05-0.406-0.05-0.68v-3.08h-0.7v-0.94h0.7v-1.54H132.575z M129.826,45.354h-1.38v-5.38h1.38V45.354z
			 M129.826,39.314h-1.38v-1.18h1.38V39.314z M127.016,38.435v1.54h0.8v0.94h-0.8v2.91c0,0.214,0.031,0.365,0.095,0.455
			c0.063,0.09,0.195,0.135,0.395,0.135c0.053,0,0.106-0.001,0.16-0.005c0.053-0.003,0.103-0.008,0.15-0.015v0.96
			c-0.154,0-0.302,0.005-0.445,0.015c-0.144,0.01-0.295,0.015-0.455,0.015c-0.267,0-0.485-0.018-0.655-0.055
			c-0.17-0.036-0.3-0.11-0.39-0.22c-0.09-0.11-0.152-0.255-0.185-0.435c-0.034-0.18-0.05-0.406-0.05-0.68v-3.08h-0.7v-0.94h0.7
			v-1.54H127.016z M121.806,43.774c0,0.234,0.061,0.422,0.185,0.565c0.123,0.144,0.301,0.215,0.535,0.215
			c0.213,0,0.383-0.053,0.51-0.16c0.126-0.106,0.19-0.266,0.19-0.48c0-0.173-0.05-0.305-0.15-0.395
			c-0.1-0.09-0.217-0.161-0.35-0.215l-0.97-0.35c-0.38-0.133-0.667-0.321-0.86-0.565c-0.194-0.243-0.29-0.555-0.29-0.935
			c0-0.22,0.036-0.428,0.11-0.625c0.073-0.196,0.19-0.368,0.35-0.515c0.16-0.146,0.365-0.263,0.615-0.35
			c0.25-0.086,0.551-0.13,0.905-0.13c0.626,0,1.09,0.134,1.39,0.4c0.3,0.267,0.45,0.644,0.45,1.13v0.22h-1.24
			c0-0.28-0.045-0.485-0.135-0.615c-0.09-0.13-0.249-0.195-0.475-0.195c-0.174,0-0.325,0.049-0.455,0.145
			c-0.13,0.097-0.195,0.242-0.195,0.435c0,0.134,0.041,0.254,0.125,0.36c0.083,0.107,0.241,0.197,0.475,0.27l0.83,0.28
			c0.433,0.147,0.74,0.339,0.92,0.575c0.18,0.237,0.27,0.559,0.27,0.965c0,0.287-0.05,0.535-0.15,0.745s-0.239,0.385-0.415,0.525
			c-0.177,0.14-0.387,0.24-0.63,0.3c-0.244,0.06-0.512,0.09-0.805,0.09c-0.387,0-0.709-0.037-0.965-0.11
			c-0.257-0.073-0.46-0.183-0.61-0.33c-0.15-0.146-0.255-0.325-0.315-0.535c-0.06-0.21-0.09-0.445-0.09-0.705v-0.19h1.24V43.774z
			 M117.016,39.975v0.63h0.02c0.146-0.266,0.336-0.461,0.57-0.585c0.233-0.123,0.5-0.185,0.8-0.185c0.44,0,0.778,0.12,1.015,0.36
			c0.236,0.24,0.355,0.63,0.355,1.17v3.99h-1.38v-3.71c0-0.28-0.047-0.475-0.14-0.585c-0.094-0.11-0.244-0.165-0.45-0.165
			c-0.487,0-0.73,0.297-0.73,0.89v3.57h-1.38v-5.38H117.016z M113.126,38.214h1.44v7.14h-1.44V38.214z"/>
	</g>
	<polygon fill="#0098A1" points="75.154,48.12 84.186,35.199 75.329,35.199 67.229,47.45 67.112,47.45 67.112,43.436 59.071,43.436 
		59.071,58.415 67.112,58.419 69.968,54.52 76.669,67.989 85.526,67.989 	"/>
	<g>
		<path fill="#0098A1" d="M91.475,58.143c0,1.359,0.343,2.457,1.031,3.292c0.686,0.836,1.679,1.253,2.98,1.253
			c1.188,0,2.135-0.312,2.841-0.933c0.705-0.621,1.058-1.554,1.058-2.797c0-1.01-0.278-1.776-0.835-2.302
			c-0.558-0.523-1.208-0.94-1.95-1.252l-5.404-2.04c-2.116-0.775-3.713-1.873-4.79-3.292c-1.078-1.417-1.616-3.232-1.616-5.447
			c0-1.282,0.204-2.496,0.613-3.642c0.408-1.145,1.059-2.145,1.95-3c0.891-0.854,2.033-1.534,3.426-2.04
			c1.392-0.504,3.072-0.757,5.041-0.757c3.49,0,6.072,0.778,7.743,2.331c1.671,1.554,2.507,3.749,2.507,6.583v1.282h-6.908
			c0-1.631-0.25-2.826-0.752-3.583c-0.501-0.757-1.384-1.136-2.646-1.136c-0.966,0-1.81,0.282-2.534,0.845s-1.087,1.408-1.087,2.534
			c0,0.778,0.232,1.477,0.697,2.098c0.464,0.621,1.345,1.146,2.646,1.573l4.623,1.631c2.414,0.854,4.122,1.972,5.125,3.35
			c1.003,1.38,1.504,3.254,1.504,5.623c0,1.67-0.278,3.117-0.835,4.34c-0.557,1.225-1.329,2.244-2.312,3.06
			c-0.985,0.815-2.154,1.398-3.51,1.748s-2.85,0.524-4.484,0.524c-2.154,0-3.946-0.214-5.375-0.641
			c-1.43-0.427-2.563-1.068-3.398-1.923c-0.836-0.854-1.421-1.895-1.755-3.117c-0.334-1.225-0.501-2.593-0.501-4.108v-1.106h6.907
			V58.143z"/>
	</g>
	<rect x="59.071" y="35.187" fill="#40B2B9" width="8.042" height="5.224"/>
	<rect x="59.071" y="61.456" fill="#006165" width="8.042" height="6.534"/>
	<rect x="47.847" y="52.324" fill="#0098A1" width="8.042" height="15.666"/>
	<rect x="36.622" y="52.324" fill="#006165" width="8.042" height="6.534"/>
	<rect x="14.173" y="52.324" fill="#006165" width="8.042" height="6.534"/>
	<rect x="47.847" y="43.446" fill="#40B2B9" width="8.042" height="5.819"/>
	<rect x="36.622" y="43.446" fill="#0098A1" width="8.042" height="5.819"/>
	<rect x="25.398" y="43.446" fill="#006165" width="8.042" height="5.819"/>
	<rect x="14.173" y="43.446" fill="#0098A1" width="8.042" height="5.819"/>
	<rect x="47.847" y="35.199" fill="#80CBD0" width="8.042" height="5.212"/>
	<rect x="36.622" y="35.199" fill="#40B2B9" width="8.042" height="5.212"/>
	<rect x="25.398" y="35.199" fill="#0098A1" width="8.042" height="5.212"/>
	<rect x="47.847" y="28.253" fill="#BFE5E8" width="8.042" height="3.909"/>
	<rect x="25.398" y="28.253" fill="#40B2B9" width="8.042" height="3.909"/>
	<rect x="25.398" y="22.676" fill="#80CBD0" width="8.042" height="2.541"/>
	<rect x="59.071" y="22.676" fill="#BFE5E8" width="8.042" height="2.541"/>
	<rect x="59.071" y="28.253" fill="#80CBD0" width="8.042" height="3.909"/>
</g>
</svg>
